<?xml version="1.0" encoding="utf-8"?>
<!-- Generator: Adobe Illustrator 21.0.0, SVG Export Plug-In . SVG Version: 6.00 Build 0)  -->
<svg version="1.1" id="Layer_1" xmlns="http://www.w3.org/2000/svg" xmlns:xlink="http://www.w3.org/1999/xlink" x="0px" y="0px"
	 viewBox="0 0 408 105" style="enable-background:new 0 0 408 105;" xml:space="preserve">
<style type="text/css">
	.st0{fill:#81B449;}
	.st1{fill:#EF6830;}
</style>
<g>
	<g>
		<path class="st0" d="M120.7,39.6c-10,0-17.8,3.7-22.5,10.1v-5.9c0-2-1.7-3.6-3.8-3.6c-2,0-3.8,1.7-3.8,3.6V100
			c0,2,1.7,3.6,3.8,3.6c2,0,3.8-1.7,3.8-3.6V69.8c0-11.4,5.9-23.7,22.5-23.7c1.9,0,3.5-1.5,3.5-3.4
			C124.1,41.1,122.5,39.6,120.7,39.6z"/>
		<path class="st0" d="M159.9,39.5c-11.2,0-17.9,5.1-21.4,8.9V10.3c0-2-1.7-3.6-3.8-3.6c-2,0-3.8,1.7-3.8,3.6v67.6
			c0,16.7,10.8,26.6,28.9,26.6c19.7,0,30.5-11.6,30.5-32.5C190.5,51,179.6,39.5,159.9,39.5z M138.5,59.8c1-2.1,6.8-13.7,21.4-13.7
			c15.6,0,22.8,8.1,22.8,25.7c0,17.6-7.2,25.9-22.8,25.9c-8,0-21.4-2.6-21.4-19.8L138.5,59.8L138.5,59.8z"/>
		<path class="st0" d="M225.3,39.5c-14.1,0-21,7.1-23.9,11.3c-0.5,0.7-0.8,1.4-0.8,2.2c0,2,1.6,3.5,3.6,3.5c1.2,0,2.4-0.6,3-1.6
			c3.2-4.4,7.1-8.6,18-8.6c7.1,0,19.1,2,19.1,15.1v4.2h-20.1c-17.3,0-27.8,7.2-27.8,19.4c0,12.3,9.5,19.3,26.2,19.3
			c8.8,0,16.7-2.7,21.7-7.3v3.3c0,2,1.6,3.5,3.6,3.5c2,0,3.6-1.5,3.6-3.5V62.3C251.6,47.6,242.3,39.5,225.3,39.5z M224.4,72.1h20.1
			v9.2c0,11.3-10.9,16.4-21.7,16.4c-8.5,0-18.6-2.2-18.6-12.7C204.1,73.3,218.2,72.1,224.4,72.1z"/>
		<path class="st0" d="M293.5,39.5c-9.9,0-16.7,3.9-20.6,8.4v-4.1c0-2-1.7-3.6-3.8-3.6c-2,0-3.8,1.7-3.8,3.6v56.3
			c0,2,1.7,3.6,3.8,3.6c2,0,3.8-1.7,3.8-3.6V65c0-9.4,6.3-18.9,20.4-18.9c17.3,0,19.6,9.4,19.6,17.6v36.4c0,2,1.7,3.6,3.8,3.6
			c2,0,3.8-1.7,3.8-3.6V63.8C320.3,47.7,311.3,39.5,293.5,39.5z"/>
		<path class="st0" d="M338.7,18.2c-2.7,0-4.2,1.6-4.2,4.4s1.5,4.4,4.2,4.4s4.2-1.6,4.2-4.4S341.2,18.2,338.7,18.2z"/>
		<path class="st0" d="M338.7,40.3c-2,0-3.8,1.7-3.8,3.6v56.3c0,2,1.7,3.6,3.8,3.6c2,0,3.8-1.7,3.8-3.6V43.8
			C342.3,41.8,340.6,40.3,338.7,40.3z"/>
		<path class="st0" d="M381.5,39.5c-14.1,0-21,7.1-23.9,11.3c-0.5,0.7-0.8,1.4-0.8,2.2c0,2,1.6,3.5,3.6,3.5c1.2,0,2.4-0.6,3-1.6
			c3.2-4.4,7.1-8.6,18-8.6c7.1,0,19.1,2,19.1,15.1v4.2h-20.1c-17.3,0-27.8,7.2-27.8,19.4c0,12.3,9.5,19.3,26.2,19.3
			c8.8,0,16.7-2.7,21.7-7.3v3.3c0,2,1.6,3.5,3.6,3.5c2,0,3.6-1.5,3.6-3.5V62.3C407.9,47.6,398.5,39.5,381.5,39.5z M380.5,72.1h20.1
			v9.2c0,11.3-10.9,16.4-21.7,16.4c-8.5,0-18.6-2.2-18.6-12.7C360.4,73.3,374.5,72.1,380.5,72.1z"/>
	</g>
	<path class="st1" d="M85.9,30.6l-10.7-7.8V4.7c0-2.3-1.9-4.2-4.2-4.2c-2.3,0-4.2,1.9-4.2,4.2v12.2l-20.6-15c-1.4-1-3.4-1-4.8,0
		L2.1,30.1c-1.9,1.3-2.3,4-1,5.8s3.9,2.4,5.8,1l37.1-26.6l37.3,27c0.7,0.5,1.6,0.8,2.4,0.8c1.3,0,2.6-0.6,3.4-1.8
		C88.2,34.6,87.7,31.9,85.9,30.6z"/>
	<path class="st0" d="M71.2,39.8c-2.2,0-4,1.7-4,3.7v33.7c0,9.9-2.8,20-23.2,20s-23.2-10.1-23.2-20V43.4c0-2-1.8-3.7-4-3.7
		s-4,1.7-4,3.7v33.7c0,8.2,2,14.3,6,18.6c5.2,5.6,13.3,8.2,25.1,8.2s19.9-2.7,25.1-8.2c4.1-4.4,6-10.5,6-18.6V43.4
		C75.1,41.4,73.3,39.8,71.2,39.8z"/>
</g>
</svg>
